#!OML:ASF \\sashay\E\Suitcase\Project 1\Capture day 1\Session 1\Male1.ASF
:FULLY-SPECIFIED
:DEGREES
598
root 1.29463 17.1634 7.41357 5.96122 -2.8222 -5.78101
lowerback 2.41162 1.40199 2.14671
upperback -0.097364 1.98244 3.45534
thorax -1.50229 0.987009 2.27178
lowerneck -14.8169 2.1803 -2.0456
upperneck 7.52122 3.44867 -1.15254
head 4.64376 1.55386 0.250691
rclavicle 1.89839e-014 2.90226e-014
rhumerus -35.0812 -29.7437 -63.4677
rradius 17.3912
rwrist 0.709481
rhand -15.4475 12.9531
rfingers 7.12502
rthumb 10.7331 -16.7527
lclavicle 1.89839e-014 2.90226e-014
lhumerus -38.6178 5.18546 83.3667
lradius 34.3367
lwrist -6.13574
lhand -0.44436 43.1388
lfingers 7.12502
lthumb 25.1647 71.5
rfemur 13.5969 7.26777 31.9794
rtibia -6.36111e-014
rfoot -10.6117 -8.92674
rtoes 9.77228
lfemur -35.7762 -2.77036 -12.1589
ltibia 24.9438
lfoot -15.5841 1.2844
ltoes -5.30446
599
root 1.3204 17.1455 7.52736 6.06675 -2.71791 -6.28137
lowerback 2.67077 1.23836 2.74431
upperback -0.318386 1.80759 3.62492
thorax -1.85819 0.892844 2.11037
lowerneck -14.9397 2.21182 -1.9297
upperneck 7.29664 3.44981 -1.00583
head 4.59239 1.57024 0.277326
rclavicle -5.46658e-015 -3.65764e-014
rhumerus -35.2308 -29.9702 -62.9539
rradius 17.3422
rwrist 1.55853
rhand -15.4849 14.562
rfingers 7.12502
rthumb 10.697 -15.1457
lclavicle -5.46658e-015 -3.65764e-014
lhumerus -39.0085 5.5729 83.1493
lradius 33.9727
lwrist -6.10947
lhand -0.831471 42.8629
lfingers 7.12502
lthumb 24.7937 71.2757
rfemur 13.8631 7.00653 32.3874
rtibia -9.54166e-015
rfoot -10.7885 -8.81635
rtoes 9.01872
lfemur -35.8766 -2.16955 -12.1236
ltibia 25.3946
lfoot -15.7748 1.20788
ltoes -6.88481
600
root 1.33411 17.1282 7.65514 6.01172 -2.83668 -6.34404
lowerback 2.32881 1.2657 2.85685
upperback 0.0301522 1.81143 3.58793
thorax -1.30318 0.897561 2.02092
lowerneck -15.3966 2.05229 -1.64852
upperneck 6.72545 3.19971 -1.19592
head 4.49671 1.44843 0.153902
rclavicle 1.66482e-014 -1.07344e-014
rhumerus -34.3776 -29.5106 -63.6822
rradius 17.5245
rwrist 0.318926
rhand -15.5359 14.6137
rfingers 7.12502
rthumb 10.6478 -15.0965
lclavicle 1.66482e-014 -1.07344e-014
lhumerus -38.3851 5.91424 83.0795
lradius 33.4965
lwrist -6.27897
lhand -0.927593 42.8598
lfingers 7.12502
lthumb 24.7016 71.2852
rfemur 14.4481 6.89014 32.3477
rtibia -3.49861e-014
rfoot -10.7926 -8.60322
rtoes 9.27054
lfemur -35.6869 -1.61717 -12.5076
ltibia 25.9024
lfoot -16.1214 1.60895
ltoes -9.29995
601
root 1.35847 17.1067 7.77253 6.08076 -2.86815 -6.16611
lowerback 2.46566 1.31309 2.73454
upperback -0.175599 1.88858 3.58826
thorax -1.59656 0.934977 2.08113
lowerneck -15.2537 1.97187 -2.11331
upperneck 6.94743 3.13681 -0.732653
head 4.52784 1.43263 0.366721
rclavicle 4.96962e-015 1.19271e-015
rhumerus -34.3596 -28.7326 -63.651
rradius 17.6445
rwrist -0.889698
rhand -15.4431 15.5346
rfingers 7.12502
rthumb 10.7374 -14.171
lclavicle 4.96962e-015 1.19271e-015
lhumerus -38.8136 5.99394 83.1916
lradius 33.4915
lwrist -6.81629
lhand -0.626453 43.2782
lfingers 7.12502
lthumb 24.9902 71.6638
rfemur 14.7017 6.70708 31.9746
rtibia 2.22639e-014
rfoot -10.8834 -8.36907
rtoes 8.23919
lfemur -35.6431 -1.26732 -13.0995
ltibia 26.3999
lfoot -16.0292 1.66261
ltoes -8.59683
602
root 1.37237 17.0906 7.89931 5.98725 -3.0434 -6.09903
lowerback 2.26338 1.41755 2.62082
upperback 0.112047 2.00061 3.58508
thorax -1.19306 0.994438 2.14641
lowerneck -14.9028 1.82862 -1.83231
upperneck 5.85932 2.89594 -1.07074
head 4.14556 1.31653 0.18627
rclavicle 5.36719e-015 5.96354e-015
rhumerus -33.9272 -29.1765 -63.517
rradius 17.7303
rwrist -0.892011
rhand -15.4259 16.4742
rfingers 7.12502
rthumb 10.7539 -13.2305
lclavicle 5.36719e-015 5.96354e-015
lhumerus -38.5377 6.50649 83.1439
lradius 33.173
lwrist -7.73968
lhand -0.71685 42.6667
lfingers 7.12502
lthumb 24.9036 71.0643
rfemur 15.2937 6.6275 31.8079
rtibia -3.81667e-014
rfoot -10.8109 -8.22986
rtoes 6.35515
lfemur -35.2608 -1.0272 -13.4185
ltibia 26.7599
lfoot -15.863 1.53788
ltoes -9.90105
603
root 1.3865 17.0774 8.02785 5.99613 -3.31588 -6.32161
lowerback 2.48421 1.47972 2.9289
upperback -0.0652873 2.11082 3.52442
thorax -1.48788 1.04486 1.89939
lowerneck -14.7388 1.87857 -2.03983
upperneck 5.71801 2.93943 -0.484495
head 4.06274 1.37099 0.400653
rclavicle -1.30701e-014 -2.50469e-014
rhumerus -34.2843 -28.5735 -63.7017
rradius 18.2653
rwrist -1.47093
rhand -15.1809 16.2117
rfingers 7.12502
rthumb 10.9903 -13.4806
lclavicle -1.30701e-014 -2.50469e-014
lhumerus -38.5603 6.37421 82.895
lradius 32.5386
lwrist -7.60597
lhand -0.337998 42.5965
lfingers 7.12502
lthumb 25.2666 70.9434
rfemur 15.8929 6.68548 31.9443
rtibia 2.8625e-014
rfoot -10.4412 -8.00211
rtoes 4.72248
lfemur -34.8592 -1.15234 -13.2034
ltibia 27.0373
lfoot -15.6766 1.51765
ltoes -8.63822
604
root 1.40224 17.0665 8.17669 5.8347 -3.60224 -5.90305
lowerback 2.31255 1.56506 2.50387
upperback 0.026955 2.19743 3.34872
thorax -1.30663 1.09203 1.95905
lowerneck -22.1519 -1.48118 -3.794
upperneck 19.7047 -1.17384 1.6074
head 9.95703 -0.638808 1.01692
rclavicle -3.42904e-015 1.11319e-014
rhumerus -34.336 -28.6791 -63.5866
rradius 18.5853
rwrist -1.70491
rhand -14.6216 16.7058
rfingers 7.12502
rthumb 11.5297 -12.9571
lclavicle -3.42904e-015 1.11319e-014
lhumerus -38.6738 6.55888 82.7591
lradius 32.3423
lwrist -7.82318
lhand -0.222376 43.3135
lfingers 7.12502
lthumb 25.3774 71.6447
rfemur 16.5489 6.67955 31.3799
rtibia 2.54444e-014
rfoot -10.3213 -7.89389
rtoes 4.94588
lfemur -34.1312 -1.48194 -13.6705
ltibia 27.3004
lfoot -15.9514 1.30626
ltoes -8.40715
605
root 1.41958 17.0527 8.3064 5.79129 -3.96586 -5.93483
lowerback 2.68402 1.67055 2.46001
upperback -0.248918 2.36781 3.38996
thorax -1.80499 1.17466 2.00397
lowerneck -21.0902 -1.42241 -3.65576
upperneck 19.0735 -1.08905 1.22888
head 9.53734 -0.633607 0.874068
rclavicle 4.09993e-014 1.03368e-014
rhumerus -35.0455 -28.3128 -63.2089
rradius 19.4205
rwrist -2.0704
rhand -14.2132 17.0298
rfingers 7.12502
rthumb 11.9236 -12.6106
lclavicle 4.09993e-014 1.03368e-014
lhumerus -39.2383 6.80232 82.6268
lradius 32.0046
lwrist -7.9593
lhand -0.508151 43.0717
lfingers 7.12502
lthumb 25.1036 71.4415
rfemur 17.1071 6.80761 31.2842
rtibia -3.81667e-014
rfoot -10.0134 -7.62724
rtoes 4.93246
lfemur -33.4553 -1.8099 -13.555
ltibia 27.4072
lfoot -16.1833 0.941055
ltoes -9.28341
606
root 1.44198 17.033 8.46317 5.9862 -4.26155 -5.87984
lowerback 2.02649 1.76751 2.43803
upperback -0.166319 2.46132 3.39064
thorax -1.3537 1.22424 2.03599
lowerneck -20.5007 -1.23574 -3.39961
upperneck 17.7165 -0.821444 0.732243
head 8.94978 -0.53798 0.696183
rclavicle -2.20154e-014 -3.1408e-014
rhumerus -34.9602 -28.5489 -62.8821
rradius 19.6002
rwrist -2.02916
rhand -14.1261 17.5392
rfingers 7.12502
rthumb 12.0075 -12.0964
lclavicle -2.20154e-014 -3.1408e-014
lhumerus -39.1595 6.99445 82.6428
lradius 31.6857
lwrist -8.25475
lhand -0.706212 42.4876
lfingers 7.12502
lthumb 24.9138 70.8838
rfemur 17.4531 6.91812 31.0318
rtibia 3.49861e-014
rfoot -9.75384 -7.43393
rtoes 4.66572
lfemur -32.9916 -2.03879 -13.6676
ltibia 27.4805
lfoot -16.4328 0.317811
ltoes -11.0156
